<svg width="43" height="43" viewBox="0 0 43 43" fill="none" xmlns="http://www.w3.org/2000/svg">
<path d="M28.3111 5.96866C27.8691 5.96865 27.5005 5.96864 27.2078 6.00825C26.899 6.05006 26.6201 6.14202 26.396 6.36763C26.1719 6.59323 26.0806 6.87398 26.039 7.18495C25.9997 7.47954 25.9997 7.85062 25.9997 8.29561L25.9997 8.79202C25.9997 8.99719 26.1649 9.16351 26.3687 9.16351C26.5725 9.16351 26.7377 8.99719 26.7377 8.79202V8.32146C26.7377 7.84396 26.7385 7.52321 26.7705 7.28395C26.801 7.05537 26.8537 6.95755 26.9178 6.893C26.982 6.82845 27.0791 6.77534 27.3062 6.74461C27.5438 6.71244 27.8624 6.71165 28.3367 6.71165H29.9357V14.8845H27.8447C27.6409 14.8845 27.4757 15.0508 27.4757 15.256C27.4757 15.4612 27.6409 15.6275 27.8447 15.6275H32.7646C32.9684 15.6275 33.1336 15.4612 33.1336 15.256C33.1336 15.0508 32.9684 14.8845 32.7646 14.8845H30.6737V6.71165H32.2726C32.7469 6.71165 33.0655 6.71244 33.3032 6.74461C33.5302 6.77534 33.6274 6.82845 33.6915 6.893C33.7556 6.95755 33.8084 7.05537 33.8389 7.28395C33.8708 7.52321 33.8716 7.84396 33.8716 8.32146V8.79202C33.8716 8.99719 34.0368 9.16351 34.2406 9.16351C34.4444 9.16351 34.6096 8.99719 34.6096 8.79202V8.2957C34.6096 7.8507 34.6096 7.47954 34.5703 7.18495C34.5288 6.87398 34.4374 6.59323 34.2133 6.36763C33.9893 6.14202 33.7104 6.05006 33.4015 6.00825C33.1089 5.96864 32.7403 5.96865 32.2982 5.96866H28.3111Z" fill="white"/>
<path d="M29.7846 28.7476C29.5691 28.7476 29.3945 28.9301 29.3945 29.1553C29.3945 29.3805 29.5691 29.563 29.7846 29.563H30.8248C31.0402 29.563 31.2149 29.3805 31.2149 29.1553C31.2149 28.9301 31.0402 28.7476 30.8248 28.7476H29.7846Z" fill="white"/>
<path d="M29.2645 30.3785C29.049 30.3785 28.8744 30.5611 28.8744 30.7863C28.8744 31.0114 29.049 31.194 29.2645 31.194H31.3449C31.5603 31.194 31.735 31.0114 31.735 30.7863C31.735 30.5611 31.5603 30.3785 31.3449 30.3785H29.2645Z" fill="white"/>
<path fill-rule="evenodd" clip-rule="evenodd" d="M30.3047 26.0293C28.653 26.0293 27.314 27.4289 27.314 29.1553V30.7863C27.314 32.5127 28.653 33.9122 30.3047 33.9122C31.9563 33.9122 33.2953 32.5127 33.2953 30.7863V29.1553C33.2953 27.4289 31.9563 26.0293 30.3047 26.0293ZM28.0942 29.1553C28.0942 27.8792 29.0839 26.8448 30.3047 26.8448C31.5255 26.8448 32.5151 27.8792 32.5151 29.1553V30.7863C32.5151 32.0623 31.5255 33.0968 30.3047 33.0968C29.0839 33.0968 28.0942 32.0623 28.0942 30.7863V29.1553Z" fill="white"/>
<path d="M26.5339 30.2426C26.5339 30.0174 26.3592 29.8349 26.1438 29.8349C25.9284 29.8349 25.7537 30.0174 25.7537 30.2426V30.7863C25.7537 33.2761 27.5838 35.3191 29.9146 35.526V36.7664C29.9146 36.9916 30.0892 37.1741 30.3047 37.1741C30.5201 37.1741 30.6947 36.9916 30.6947 36.7664V35.526C33.0256 35.3191 34.8556 33.2761 34.8556 30.7863V30.2426C34.8556 30.0174 34.681 29.8349 34.4655 29.8349C34.2501 29.8349 34.0754 30.0174 34.0754 30.2426V30.7863C34.0754 32.9631 32.3872 34.7277 30.3047 34.7277C28.2221 34.7277 26.5339 32.9631 26.5339 30.7863V30.2426Z" fill="white"/>
<path d="M12.8354 16.2537C12.8354 15.9899 12.6277 15.7761 12.3715 15.7761C12.1153 15.7761 11.9076 15.9899 11.9076 16.2537L11.9076 26.4433C11.9076 26.7071 12.1153 26.9209 12.3715 26.9209C12.6277 26.9209 12.8354 26.7071 12.8354 26.4433V16.2537Z" fill="white"/>
<path d="M10.3614 18.1643C10.3614 17.9005 10.1537 17.6866 9.89748 17.6866C9.64128 17.6866 9.4336 17.9005 9.4336 18.1643V24.5327C9.4336 24.7965 9.64128 25.0104 9.89748 25.0104C10.1537 25.0104 10.3614 24.7965 10.3614 24.5327V18.1643Z" fill="white"/>
<path d="M15.3094 18.1643C15.3094 17.9005 15.1017 17.6866 14.8455 17.6866C14.5893 17.6866 14.3816 17.9005 14.3816 18.1643V24.5327C14.3816 24.7965 14.5893 25.0104 14.8455 25.0104C15.1017 25.0104 15.3094 24.7965 15.3094 24.5327V18.1643Z" fill="white"/>
<path d="M7.88733 20.7117C7.88733 20.4479 7.67964 20.234 7.42345 20.234C7.16726 20.234 6.95957 20.4479 6.95957 20.7117V21.9854C6.95957 22.2491 7.16726 22.463 7.42345 22.463C7.67964 22.463 7.88733 22.2491 7.88733 21.9854V20.7117Z" fill="white"/>
<path d="M17.7834 20.7117C17.7834 20.4479 17.5757 20.234 17.3196 20.234C17.0634 20.234 16.8557 20.4479 16.8557 20.7117V21.9854C16.8557 22.2491 17.0634 22.463 17.3196 22.463C17.5757 22.463 17.7834 22.2491 17.7834 21.9854V20.7117Z" fill="white"/>
<path fill-rule="evenodd" clip-rule="evenodd" d="M24.679 0C24.2446 0 23.8434 0.232273 23.627 0.608999L18.119 10.1976C18.0792 10.267 18.0467 10.3393 18.0216 10.4135C17.9664 10.4058 17.9103 10.4018 17.8537 10.4018H6.72125C6.28685 10.4018 5.8856 10.6341 5.6692 11.0108L0.161272 20.5994C-0.0515523 20.9699 -0.0538789 21.4251 0.155148 21.7977L5.66782 31.6259C5.88253 32.0087 6.28716 32.2457 6.72599 32.2457H17.8489C17.9418 32.2457 18.0331 32.2351 18.1214 32.2147L23.6256 42.0277C23.8403 42.4105 24.2449 42.6475 24.6838 42.6475H35.8067C36.2417 42.6475 36.6434 42.4146 36.8596 42.037L42.487 32.209C42.7032 31.8315 42.7008 31.3672 42.4808 30.9919L36.858 21.4033C36.8413 21.3748 36.8236 21.3471 36.8048 21.3203C36.8242 21.2923 36.8424 21.2633 36.8596 21.2334L42.487 11.4053C42.7032 11.0278 42.7008 10.5635 42.4808 10.1883L36.858 0.599603C36.6402 0.228177 36.242 0 35.8115 0H24.679ZM35.8067 20.8036H24.6838C24.6605 20.8036 24.6379 20.799 24.6171 20.7903C24.5921 20.7215 24.5608 20.6545 24.523 20.5901L23.1302 18.2149L19.0199 10.887C18.99 10.8337 18.9904 10.7687 19.0208 10.7158L24.5287 1.12718C24.5596 1.07336 24.617 1.04018 24.679 1.04018H35.8115C35.873 1.04018 35.9298 1.07278 35.961 1.12584L41.5837 10.7145C41.6151 10.7681 41.6155 10.8345 41.5846 10.8884L35.9571 20.7164C35.9262 20.7704 35.8688 20.8036 35.8067 20.8036ZM35.8115 21.8438C35.873 21.8438 35.9298 21.8764 35.961 21.9295L41.5837 31.5182C41.6151 31.5718 41.6155 31.6381 41.5846 31.692L35.9571 41.5201C35.9262 41.574 35.8688 41.6073 35.8067 41.6073H24.6838C24.6211 41.6073 24.5633 41.5734 24.5326 41.5188L19.0199 31.6906C18.99 31.6374 18.9904 31.5724 19.0208 31.5194L24.5287 21.9308C24.5596 21.877 24.617 21.8438 24.679 21.8438H35.8115ZM22.2281 18.7326L23.6256 21.224C23.6311 21.2339 23.6368 21.2437 23.6426 21.2534C23.6388 21.2661 23.6336 21.2784 23.6268 21.2902L17.9993 31.1183C17.9684 31.1722 17.9111 31.2055 17.8489 31.2055H6.72599C6.6633 31.2055 6.6055 31.1716 6.57483 31.1169L1.06215 21.2888C1.03229 21.2356 1.03262 21.1706 1.06303 21.1176L6.57096 11.529C6.60187 11.4752 6.65919 11.442 6.72125 11.442H17.8537C17.9152 11.442 17.9721 11.4746 18.0032 11.5277L22.2281 18.7326Z" fill="white"/>
</svg>
